<?xml version="1.0" standalone="no"?>
<!DOCTYPE svg PUBLIC "-//W3C//DTD SVG 20010904//EN"
 "http://www.w3.org/TR/2001/REC-SVG-20010904/DTD/svg10.dtd">
<svg version="1.0" xmlns="http://www.w3.org/2000/svg"
 width="389.000000pt" height="401.000000pt" viewBox="0 0 389.000000 401.000000"
 preserveAspectRatio="xMidYMid meet">

<g transform="translate(0.000000,401.000000) scale(0.100000,-0.100000)"
fill="#000000" stroke="none">
<path d="M2185 3858 c-99 -71 -463 -332 -808 -581 l-628 -452 323 -3 323 -2
705 270 c388 149 709 275 713 279 5 5 -94 146 -220 314 l-229 304 -179 -129z"/>
<path d="M2505 3114 c-313 -113 -624 -225 -690 -249 l-120 -44 784 0 c622 -1
782 2 779 12 -3 6 -42 116 -88 242 -46 127 -86 233 -89 237 -3 4 -262 -86
-576 -198z"/>
<path d="M170 2984 c-59 -19 -86 -43 -113 -101 l-22 -48 -3 -1358 c-2 -1357
-2 -1359 18 -1392 12 -19 40 -43 64 -54 l43 -21 1701 2 c1700 3 1701 3 1728
24 15 11 37 33 48 48 20 26 21 42 24 377 l3 349 -204 0 c-157 0 -216 4 -257
16 -159 47 -293 186 -336 349 -54 201 43 431 228 539 94 55 119 60 348 65
l215 6 0 437 c0 425 -1 437 -21 464 -11 15 -33 37 -48 48 -27 21 -30 21 -1673
26 -1613 5 -1645 5 -1659 24 -19 27 -18 60 4 79 16 15 45 17 198 17 l179 0 70
51 c39 28 74 55 79 60 6 5 -101 9 -280 8 -222 0 -299 -4 -334 -15z"/>
<path d="M3325 2973 c3 -15 13 -42 20 -60 l14 -33 148 0 c164 0 184 -6 220
-59 l23 -34 0 -443 c0 -244 2 -444 5 -444 2 0 29 12 60 27 l55 27 0 438 c0
417 -1 441 -20 476 -27 51 -49 76 -94 106 -39 26 -40 26 -238 26 l-200 0 7
-27z"/>
<path d="M3751 1750 l-105 -88 -196 -4 -196 -3 -77 -38 c-130 -64 -201 -178
-201 -322 0 -150 77 -270 212 -333 55 -26 64 -27 257 -30 l200 -3 112 93 112
93 0 363 c1 199 -2 362 -6 361 -5 0 -55 -40 -112 -89z m-330 -296 c65 -33 106
-115 94 -192 -10 -67 -80 -137 -147 -147 -115 -17 -211 65 -211 181 0 135 142
220 264 158z"/>
<path d="M3808 949 l-58 -29 0 -345 c0 -345 0 -345 21 -345 12 0 39 17 60 39
l39 39 0 336 c0 185 -1 336 -2 336 -2 -1 -29 -14 -60 -31z"/>
</g>
</svg>
